<svg width="160" height="160" viewBox="0 0 160 160" fill="none" xmlns="http://www.w3.org/2000/svg">
<path d="M87.7397 32.079C88.6467 32.9859 88.918 34.3498 88.4271 35.5345C87.9363 36.7193 86.7801 37.4919 85.4976 37.4919C79.7114 37.4919 72.7587 37.4919 72.7587 37.4919V156.745C72.7587 157.586 72.4246 158.393 71.8299 158.987C71.2354 159.582 70.4289 159.916 69.5878 159.916C64.6444 159.916 55.6608 159.916 55.6608 159.916V1.10827e-06C55.6608 1.10827e-06 77.3565 21.6959 87.7397 32.079Z" fill="#138767"/>
<path d="M55.6608 1.10827e-06V159.916H41.7337C40.8927 159.916 40.0862 159.582 39.4915 158.987C38.8969 158.393 38.5629 157.586 38.5629 156.745C38.5629 137.529 38.5629 37.4919 38.5629 37.4919C38.5629 37.4919 31.6102 37.4919 25.8239 37.4919C24.5415 37.4919 23.3853 36.7193 22.8945 35.5345C22.4036 34.3496 22.6749 32.9859 23.5818 32.079C33.9649 21.6957 55.6608 1.10827e-06 55.6608 1.10827e-06Z" fill="#19AD84"/>
<path d="M38.5627 132.994V156.746C38.5627 157.586 38.8967 158.393 39.4915 158.988C40.0862 159.582 40.8927 159.916 41.7336 159.916C46.677 159.916 55.6606 159.916 55.6606 159.916V132.994C55.6606 107.124 76.6349 86.1494 102.505 86.1494H141.81C141.81 86.1494 120.118 64.4577 109.736 54.0758C108.829 53.1691 107.466 52.8978 106.281 53.3886C105.096 53.8793 104.323 55.0356 104.323 56.3181C104.323 62.1023 104.323 69.0515 104.323 69.0515H102.505C67.2476 69.0515 38.5627 97.7372 38.5627 132.994Z" fill="#00C3FD"/>
<path d="M55.6608 132.994V159.916C55.6608 159.916 64.6444 159.916 69.5878 159.916C70.4287 159.916 71.2354 159.582 71.8299 158.988C72.4246 158.393 72.7587 157.586 72.7587 156.746C72.7587 149.627 72.7587 132.994 72.7587 132.994C72.7587 116.594 86.1007 103.248 102.505 103.248H104.323C104.323 103.248 104.323 110.2 104.323 115.986C104.323 117.268 105.096 118.425 106.281 118.915C107.466 119.406 108.83 119.135 109.737 118.228C115.777 112.186 124.713 103.248 124.713 103.248L141.811 86.1494H102.505C76.6343 86.1494 55.6608 107.124 55.6608 132.994Z" fill="#0097E8"/>
</svg>
